<svg id="_016-barbecue" data-name="016-barbecue" xmlns="http://www.w3.org/2000/svg" xmlns:xlink="http://www.w3.org/1999/xlink" width="39.277" height="35.704" viewBox="0 0 39.277 35.704">
  <defs>
    <linearGradient id="linear-gradient" x1="3.033" y1="-7.255" x2="3.44" y2="-7.255" gradientUnits="objectBoundingBox">
      <stop offset="0" stop-color="#a57c52"/>
      <stop offset="0.134" stop-color="#a26c4a"/>
      <stop offset="0.516" stop-color="#994336"/>
      <stop offset="0.817" stop-color="#942a2a"/>
      <stop offset="1" stop-color="#922125"/>
    </linearGradient>
    <linearGradient id="linear-gradient-2" x1="-3.09" y1="-8.138" x2="-2.943" y2="-7.565" gradientUnits="objectBoundingBox">
      <stop offset="0" stop-color="#ffdecf"/>
      <stop offset="0.379" stop-color="#fdc4b0"/>
      <stop offset="0.766" stop-color="#fbae97"/>
      <stop offset="1" stop-color="#faa68e"/>
    </linearGradient>
    <linearGradient id="linear-gradient-3" x1="-3.38" y1="-9.295" x2="-2.788" y2="-8.255" xlink:href="#linear-gradient-2"/>
    <linearGradient id="linear-gradient-4" x1="1.105" y1="1.551" x2="0.175" y2="0.246" gradientUnits="objectBoundingBox">
      <stop offset="0" stop-color="#f82814" stop-opacity="0"/>
      <stop offset="0.245" stop-color="#f12817" stop-opacity="0.243"/>
      <stop offset="0.605" stop-color="#dd2820" stop-opacity="0.604"/>
      <stop offset="1" stop-color="#c0272d"/>
    </linearGradient>
    <linearGradient id="linear-gradient-5" x1="0.668" y1="0.332" x2="0.409" y2="0.591" gradientUnits="objectBoundingBox">
      <stop offset="0" stop-color="#bada00"/>
      <stop offset="0.227" stop-color="#b0ce00"/>
      <stop offset="0.638" stop-color="#95ae00"/>
      <stop offset="1" stop-color="#798c00"/>
    </linearGradient>
    <linearGradient id="linear-gradient-6" x1="0.895" y1="0.935" x2="0.161" y2="0.038" gradientUnits="objectBoundingBox">
      <stop offset="0" stop-color="#798c00" stop-opacity="0"/>
      <stop offset="0.654" stop-color="#556100" stop-opacity="0.655"/>
      <stop offset="1" stop-color="#464f00"/>
    </linearGradient>
    <linearGradient id="linear-gradient-7" x1="0.426" y1="0.199" x2="0.663" y2="0.983" xlink:href="#linear-gradient"/>
    <linearGradient id="linear-gradient-8" x1="0.484" y1="0.167" x2="0.55" y2="1.317" xlink:href="#linear-gradient"/>
    <linearGradient id="linear-gradient-9" x1="-131.136" y1="-350.586" x2="-129.751" y2="-348.666" gradientUnits="objectBoundingBox">
      <stop offset="0" stop-color="#42210b" stop-opacity="0"/>
      <stop offset="1" stop-color="#42210b"/>
    </linearGradient>
    <linearGradient id="linear-gradient-10" x1="-164.211" y1="-447.611" x2="-162.826" y2="-445.691" xlink:href="#linear-gradient-9"/>
    <linearGradient id="linear-gradient-11" x1="-279.76" y1="-742.898" x2="-278.374" y2="-740.978" xlink:href="#linear-gradient-9"/>
    <linearGradient id="linear-gradient-12" x1="-341.476" y1="-311.014" x2="-340.091" y2="-309.095" xlink:href="#linear-gradient-9"/>
    <linearGradient id="linear-gradient-13" x1="-429.605" y1="-396.277" x2="-428.22" y2="-394.357" xlink:href="#linear-gradient-9"/>
    <linearGradient id="linear-gradient-14" x1="-718.616" y1="-660.345" x2="-717.23" y2="-658.426" xlink:href="#linear-gradient-9"/>
    <linearGradient id="linear-gradient-15" x1="0.753" y1="0.237" x2="1.337" y2="-0.3" xlink:href="#linear-gradient-9"/>
    <linearGradient id="linear-gradient-16" x1="0.722" y1="0.203" x2="1.262" y2="-0.354" xlink:href="#linear-gradient-9"/>
    <linearGradient id="linear-gradient-17" x1="1.076" y1="1.682" x2="0.297" y2="0.464" xlink:href="#linear-gradient-9"/>
    <linearGradient id="linear-gradient-18" x1="0.668" y1="0.332" x2="0.409" y2="0.591" gradientUnits="objectBoundingBox">
      <stop offset="0" stop-color="#ffd945"/>
      <stop offset="0.304" stop-color="#ffcd3e"/>
      <stop offset="0.856" stop-color="#ffad2b"/>
      <stop offset="1" stop-color="#ffa325"/>
    </linearGradient>
    <linearGradient id="linear-gradient-19" x1="1.06" y1="1.083" x2="-0.112" y2="-0.41" gradientUnits="objectBoundingBox">
      <stop offset="0" stop-color="#f82814" stop-opacity="0"/>
      <stop offset="1" stop-color="#c0272d"/>
    </linearGradient>
    <linearGradient id="linear-gradient-20" x1="0.647" y1="0.075" x2="0.351" y2="0.75" xlink:href="#linear-gradient"/>
    <linearGradient id="linear-gradient-21" x1="0.517" y1="0.16" x2="0.4" y2="1.43" xlink:href="#linear-gradient"/>
    <linearGradient id="linear-gradient-22" x1="-254.04" y1="-792.6" x2="-252.655" y2="-790.681" xlink:href="#linear-gradient-9"/>
    <linearGradient id="linear-gradient-23" x1="-339.543" y1="-344.884" x2="-338.159" y2="-342.964" xlink:href="#linear-gradient-9"/>
    <linearGradient id="linear-gradient-24" x1="-427.156" y1="-439.184" x2="-425.772" y2="-437.264" xlink:href="#linear-gradient-9"/>
    <linearGradient id="linear-gradient-25" x1="-714.556" y1="-731.505" x2="-713.17" y2="-729.586" xlink:href="#linear-gradient-9"/>
    <linearGradient id="linear-gradient-26" x1="1.325" y1="1.872" x2="0.226" y2="0.319" xlink:href="#linear-gradient-9"/>
    <radialGradient id="radial-gradient" cx="0.371" cy="0.645" r="0.761" gradientUnits="objectBoundingBox">
      <stop offset="0" stop-color="#ff6359"/>
      <stop offset="0.484" stop-color="#ff6157"/>
      <stop offset="0.659" stop-color="#fe5c50"/>
      <stop offset="0.784" stop-color="#fd5145"/>
      <stop offset="0.884" stop-color="#fb4334"/>
      <stop offset="0.969" stop-color="#f9311e"/>
      <stop offset="1" stop-color="#f82814"/>
    </radialGradient>
    <linearGradient id="linear-gradient-27" x1="0.799" y1="0.847" x2="0.077" y2="0.113" xlink:href="#linear-gradient-19"/>
    <linearGradient id="linear-gradient-28" x1="5.363" y1="-7.573" x2="5.829" y2="-7.573" xlink:href="#linear-gradient"/>
    <linearGradient id="linear-gradient-29" x1="3.226" y1="-8.112" x2="3.632" y2="-8.112" xlink:href="#linear-gradient"/>
    <radialGradient id="radial-gradient-2" cx="0.37" cy="0.646" r="0.761" xlink:href="#radial-gradient"/>
    <linearGradient id="linear-gradient-30" x1="1.001" y1="0.692" x2="0.765" y2="0.606" xlink:href="#linear-gradient-19"/>
    <linearGradient id="linear-gradient-33" x1="-348.715" y1="-790.037" x2="-347.331" y2="-788.118" xlink:href="#linear-gradient-9"/>
    <linearGradient id="linear-gradient-34" x1="-391.299" y1="-320.037" x2="-389.915" y2="-318.118" xlink:href="#linear-gradient-9"/>
    <linearGradient id="linear-gradient-35" x1="-492.724" y1="-407.708" x2="-491.34" y2="-405.788" xlink:href="#linear-gradient-9"/>
    <linearGradient id="linear-gradient-36" x1="-823.294" y1="-679.302" x2="-821.911" y2="-677.383" xlink:href="#linear-gradient-9"/>
    <linearGradient id="linear-gradient-37" x1="1.198" y1="1.791" x2="0.197" y2="0.294" xlink:href="#linear-gradient-9"/>
    <linearGradient id="linear-gradient-39" x1="0.899" y1="0.922" x2="0.122" y2="-0.046" xlink:href="#linear-gradient-6"/>
    <linearGradient id="linear-gradient-40" x1="-13.488" y1="4.794" x2="-13.249" y2="5.622" xlink:href="#linear-gradient"/>
    <linearGradient id="linear-gradient-41" x1="-16.538" y1="8.47" x2="-16.477" y2="9.858" xlink:href="#linear-gradient"/>
    <linearGradient id="linear-gradient-42" x1="-141.077" y1="-376.745" x2="-139.692" y2="-374.826" xlink:href="#linear-gradient-9"/>
    <linearGradient id="linear-gradient-43" x1="-176.803" y1="-480.748" x2="-175.418" y2="-478.828" xlink:href="#linear-gradient-9"/>
    <linearGradient id="linear-gradient-44" x1="-300.646" y1="-797.866" x2="-299.262" y2="-795.945" xlink:href="#linear-gradient-9"/>
    <linearGradient id="linear-gradient-45" x1="-366.636" y1="-336.263" x2="-365.251" y2="-334.345" xlink:href="#linear-gradient-9"/>
    <linearGradient id="linear-gradient-46" x1="-461.48" y1="-428.263" x2="-460.096" y2="-426.345" xlink:href="#linear-gradient-9"/>
    <linearGradient id="linear-gradient-47" x1="-771.479" y1="-713.397" x2="-770.095" y2="-711.478" xlink:href="#linear-gradient-9"/>
    <linearGradient id="linear-gradient-48" x1="-17.005" y1="5.475" x2="-16.355" y2="5.038" xlink:href="#linear-gradient-9"/>
    <linearGradient id="linear-gradient-49" x1="-19.806" y1="5.787" x2="-19.16" y2="5.39" xlink:href="#linear-gradient-9"/>
    <linearGradient id="linear-gradient-50" x1="1.053" y1="1.433" x2="0.476" y2="0.457" xlink:href="#linear-gradient-9"/>
    <linearGradient id="linear-gradient-51" x1="-0.961" y1="-6.912" x2="-0.813" y2="-6.338" xlink:href="#linear-gradient-2"/>
    <linearGradient id="linear-gradient-52" x1="-1.066" y1="-7.873" x2="-0.474" y2="-6.833" xlink:href="#linear-gradient-2"/>
    <linearGradient id="linear-gradient-53" x1="0.799" y1="1.141" x2="0.201" y2="0.287" xlink:href="#linear-gradient-4"/>
    <linearGradient id="linear-gradient-54" x1="1.079" y1="0.71" x2="0.795" y2="0.994" xlink:href="#linear-gradient-18"/>
    <linearGradient id="linear-gradient-55" x1="0.752" y1="0.825" x2="-0.357" y2="-0.33" xlink:href="#linear-gradient-19"/>
    <linearGradient id="linear-gradient-56" x1="5.583" y1="-8.554" x2="6.049" y2="-8.554" xlink:href="#linear-gradient"/>
  </defs>
  <g id="Group_93" data-name="Group 93" transform="translate(0 0)">
    <path id="Path_1896" data-name="Path 1896" d="M231.2,33.661a1.141,1.141,0,0,1,0-1.614l8.51-8.51a1.141,1.141,0,0,1,1.614,1.614l-8.51,8.51A1.141,1.141,0,0,1,231.2,33.661Z" transform="translate(-213.089 -23.203)" fill="url(#linear-gradient)"/>
    <g id="Group_84" data-name="Group 84" transform="translate(20.426 1.004)">
      <path id="Path_1897" data-name="Path 1897" d="M271.884,37.459a1.106,1.106,0,0,0-.27-.178c-.773-.359-4.515-1.968-6.078-.277-.973,1.053.481,2.832,1.959,4.2,1.35,1.25,3.227,1.47,4.176.492C272.748,40.59,273.6,38.989,271.884,37.459Z" transform="translate(-265.221 -36.245)" fill="url(#linear-gradient-2)"/>
      <path id="Path_1898" data-name="Path 1898" d="M271.884,37.459a1.106,1.106,0,0,0-.27-.178c-.773-.359-4.515-1.968-6.078-.277-.973,1.053.481,2.832,1.959,4.2C268.846,42.456,273.6,38.989,271.884,37.459Z" transform="translate(-265.221 -36.245)" fill="url(#linear-gradient-3)"/>
    </g>
    <path id="Path_1899" data-name="Path 1899" d="M290.837,77.128l-1.419,1.419c.136.134.273.265.411.393a3.413,3.413,0,0,0,3.678.858Z" transform="translate(-267.129 -72.975)" fill="url(#linear-gradient-4)"/>
    <path id="Path_1900" data-name="Path 1900" d="M193.681,30.112a20.562,20.562,0,0,1,9.187,9.187c.411.909,1.8.8,2.813-.213a2.3,2.3,0,0,0,.759-2.211,17.666,17.666,0,0,0-4.18-6.155,17.667,17.667,0,0,0-6.155-4.179,2.3,2.3,0,0,0-2.211.759C192.879,28.315,192.772,29.7,193.681,30.112Z" transform="translate(-178.193 -26.215)" fill="url(#linear-gradient-5)"/>
    <path id="Path_1901" data-name="Path 1901" d="M238.067,93.478q-.078-.085-.167-.167c-1.191-1.3-4.195-1.89-5.6-1.763a21.518,21.518,0,0,1,2.936,2.467,18.857,18.857,0,0,1,3.849,5.338c.41.909,1.8.8,2.812-.213a3,3,0,0,0,.718-1.117Z" transform="translate(-214.407 -86.269)" fill="url(#linear-gradient-6)"/>
    <g id="Group_88" data-name="Group 88" transform="translate(11.807 5.262)">
      <path id="Path_1902" data-name="Path 1902" d="M158.746,91.726s-4.014,2.755-5.289,5.755,6.234,5.51,7.9,4.722S165.5,96.94,165.5,94.48,159.6,91.087,158.746,91.726Z" transform="translate(-153.311 -91.531)" fill="url(#linear-gradient-7)"/>
      <path id="Path_1903" data-name="Path 1903" d="M162.573,91.726s-3.685,2.529-5.115,5.38c1.984,1.009,4.49,1.512,5.367,1.1,1.341-.636,3.221-3.676,3.895-6.118C165.023,91.5,163.041,91.376,162.573,91.726Z" transform="translate(-157.139 -91.531)" fill="url(#linear-gradient-8)"/>
      <g id="Group_87" data-name="Group 87" transform="translate(4.691 0.806)" opacity="0.5">
        <g id="Group_85" data-name="Group 85" transform="translate(0 0.009)">
          <ellipse id="Ellipse_105" data-name="Ellipse 105" cx="0.425" cy="0.425" rx="0.425" ry="0.425" transform="translate(0.473)" fill="url(#linear-gradient-9)"/>
          <ellipse id="Ellipse_106" data-name="Ellipse 106" cx="0.335" cy="0.335" rx="0.335" ry="0.335" transform="translate(0 1.32)" fill="url(#linear-gradient-10)"/>
          <ellipse id="Ellipse_107" data-name="Ellipse 107" cx="0.202" cy="0.202" rx="0.202" ry="0.202" transform="translate(1.623 1.447)" fill="url(#linear-gradient-11)"/>
        </g>
        <g id="Group_86" data-name="Group 86" transform="translate(1.962)">
          <ellipse id="Ellipse_108" data-name="Ellipse 108" cx="0.314" cy="0.314" rx="0.314" ry="0.314" transform="translate(0.889)" fill="url(#linear-gradient-12)"/>
          <ellipse id="Ellipse_109" data-name="Ellipse 109" cx="0.248" cy="0.248" rx="0.248" ry="0.248" transform="translate(0 0.363)" fill="url(#linear-gradient-13)"/>
          <ellipse id="Ellipse_110" data-name="Ellipse 110" cx="0.149" cy="0.149" rx="0.149" ry="0.149" transform="translate(0.836 1.279)" fill="url(#linear-gradient-14)"/>
        </g>
      </g>
      <path id="Path_1904" data-name="Path 1904" d="M158.262,127.186a8.348,8.348,0,0,0-3.03.558,10.062,10.062,0,0,0-1.776,2.646c-1.275,3,6.234,5.51,7.9,4.722,1.061-.5,2.458-2.509,3.329-4.534a7.242,7.242,0,0,0-6.419-3.392Z" transform="translate(-153.311 -124.44)" fill="url(#linear-gradient-15)"/>
      <path id="Path_1905" data-name="Path 1905" d="M164.02,147.518a9.15,9.15,0,0,0-7.421-3.445,10.5,10.5,0,0,0-2.152.221,8.433,8.433,0,0,0-.99,1.683c-1.275,3,6.234,5.51,7.9,4.722A8.012,8.012,0,0,0,164.02,147.518Z" transform="translate(-153.312 -140.026)" fill="url(#linear-gradient-16)"/>
    </g>
    <path id="Path_1906" data-name="Path 1906" d="M194.261,185.893l-2.452,2.452c1.931.913,4.241,1.349,5.075.954a2.514,2.514,0,0,0,.476-.306Z" transform="translate(-177.037 -173.364)" fill="url(#linear-gradient-17)"/>
    <path id="Path_1907" data-name="Path 1907" d="M97.282,126.511a20.563,20.563,0,0,1,9.187,9.187c.41.909,1.8.8,2.812-.214a2.3,2.3,0,0,0,.759-2.211,19.813,19.813,0,0,0-10.334-10.334,2.3,2.3,0,0,0-2.211.759C96.48,124.714,96.374,126.1,97.282,126.511Z" transform="translate(-89.218 -115.19)" fill="url(#linear-gradient-18)"/>
    <path id="Path_1908" data-name="Path 1908" d="M127.335,184.294a2.3,2.3,0,0,0,.759-2.211l-.017-.045-3.94-3.94q-.165-.17-.355-.34a1.829,1.829,0,0,0-.447-.294c-.909-.422-4.3-1.888-7.114-1.7a19.969,19.969,0,0,1,4.452,3.406,18.856,18.856,0,0,1,3.849,5.338C124.933,185.416,126.32,185.31,127.335,184.294Z" transform="translate(-107.271 -163.999)" fill="url(#linear-gradient-19)"/>
    <g id="Group_92" data-name="Group 92" transform="translate(5.475 11.747)">
      <path id="Path_1909" data-name="Path 1909" d="M82.123,177.75a1.829,1.829,0,0,0-.447-.294c-1.28-.594-7.48-3.26-10.068-.459-1.612,1.745.8,4.691,3.245,6.959,2.237,2.071,5.345,2.435,6.919.815C83.555,182.936,84.968,180.285,82.123,177.75Z" transform="translate(-71.086 -175.739)" fill="url(#linear-gradient-20)"/>
      <path id="Path_1910" data-name="Path 1910" d="M82.123,177.75a1.829,1.829,0,0,0-.447-.294c-1.28-.594-7.48-3.26-10.068-.459-1.612,1.745.8,4.691,3.245,6.959C77.091,186.028,84.968,180.285,82.123,177.75Z" transform="translate(-71.086 -175.739)" fill="url(#linear-gradient-21)"/>
      <g id="Group_91" data-name="Group 91" transform="translate(8.145 4.735)" opacity="0.5">
        <g id="Group_89" data-name="Group 89" transform="translate(0 1.456)">
          <ellipse id="Ellipse_111" data-name="Ellipse 111" cx="0.202" cy="0.202" rx="0.202" ry="0.202" fill="url(#linear-gradient-22)"/>
        </g>
        <g id="Group_90" data-name="Group 90" transform="translate(0.339)">
          <ellipse id="Ellipse_112" data-name="Ellipse 112" cx="0.314" cy="0.314" rx="0.314" ry="0.314" transform="translate(0.889)" fill="url(#linear-gradient-23)"/>
          <ellipse id="Ellipse_113" data-name="Ellipse 113" cx="0.248" cy="0.248" rx="0.248" ry="0.248" transform="translate(0 0.363)" fill="url(#linear-gradient-24)"/>
          <ellipse id="Ellipse_114" data-name="Ellipse 114" cx="0.149" cy="0.149" rx="0.149" ry="0.149" transform="translate(0.835 1.279)" fill="url(#linear-gradient-25)"/>
        </g>
      </g>
    </g>
    <path id="Path_1911" data-name="Path 1911" d="M116.092,260.015a6.262,6.262,0,0,0,4.894,1.787l-3.658-3.658-1.563,1.564Q115.928,259.863,116.092,260.015Z" transform="translate(-106.849 -240.05)" fill="url(#linear-gradient-26)"/>
    <path id="Path_1912" data-name="Path 1912" d="M7.393,196.719a24.26,24.26,0,0,1,5.984,4.495,24.263,24.263,0,0,1,4.495,5.984c.5,1,1.98.985,3-.031a2.227,2.227,0,0,0,.657-2.314,22.63,22.63,0,0,0-4.906-6.881,22.626,22.626,0,0,0-6.881-4.906,2.227,2.227,0,0,0-2.314.657c-1.015,1.015-1.032,2.492-.031,3Z" transform="translate(-6.14 -179.879)" fill="url(#radial-gradient)"/>
    <path id="Path_1913" data-name="Path 1913" d="M84.118,274.075a24.259,24.259,0,0,1,4.495,5.984c.5,1,1.98.985,3-.031a2.6,2.6,0,0,0,.748-1.412l-6.389-6.39a1.141,1.141,0,0,0-1.614,0L83.3,273.284Q83.708,273.667,84.118,274.075Z" transform="translate(-76.88 -252.74)" fill="url(#linear-gradient-27)"/>
    <path id="Path_1914" data-name="Path 1914" d="M.334,280.979a1.141,1.141,0,0,1,0-1.614l7.138-7.138a1.141,1.141,0,1,1,1.614,1.614l-7.138,7.138a1.141,1.141,0,0,1-1.614,0Z" transform="translate(0 -252.74)" fill="url(#linear-gradient-28)"/>
  </g>
  <g id="Group_103" data-name="Group 103" transform="translate(10.127 6.553)">
    <path id="Path_1915" data-name="Path 1915" d="M362.7,126.248a1.141,1.141,0,0,1,0-1.614l8.51-8.51a1.141,1.141,0,0,1,1.614,1.614l-8.51,8.51A1.141,1.141,0,0,1,362.7,126.248Z" transform="translate(-344.588 -115.213)" fill="url(#linear-gradient-29)"/>
    <path id="Path_1916" data-name="Path 1916" d="M355.828,111.293a21.148,21.148,0,0,1,8.333,8.334c.4.8,1.575.783,2.382-.024a1.771,1.771,0,0,0,.523-1.84,20.333,20.333,0,0,0-9.374-9.374,1.771,1.771,0,0,0-1.84.523C355.045,109.719,355.031,110.893,355.828,111.293Z" transform="translate(-338.007 -108.297)" fill="url(#radial-gradient-2)"/>
    <path id="Path_1917" data-name="Path 1917" d="M371.188,151.683a20.307,20.307,0,0,1,4.12,3.229,19.3,19.3,0,0,1,3.574,4.759c.4.8,1.575.783,2.382-.024a1.771,1.771,0,0,0,.523-1.84,11.21,11.21,0,0,0-.526-1.09l-2.647-2.647q-.18-.188-.39-.376a1.831,1.831,0,0,0-.447-.294A17.857,17.857,0,0,0,371.188,151.683Z" transform="translate(-352.729 -148.342)" fill="url(#linear-gradient-30)"/>
    <g id="Group_97" data-name="Group 97" transform="translate(14.458 3.341)">
      <path id="Path_1918" data-name="Path 1918" d="M330.274,153.687a1.829,1.829,0,0,0-.447-.294c-1.28-.594-7.48-3.26-10.068-.459-1.612,1.745.8,4.691,3.245,6.959,2.237,2.071,5.345,2.435,6.919.815C331.706,158.873,333.119,156.222,330.274,153.687Z" transform="translate(-319.237 -151.676)" fill="url(#linear-gradient-20)"/>
      <path id="Path_1919" data-name="Path 1919" d="M330.274,153.687a1.829,1.829,0,0,0-.447-.294c-1.28-.594-7.48-3.26-10.068-.459-1.612,1.745.8,4.691,3.245,6.959C325.241,161.965,333.119,156.222,330.274,153.687Z" transform="translate(-319.237 -151.676)" fill="url(#linear-gradient-21)"/>
      <g id="Group_96" data-name="Group 96" transform="translate(8.145 4.735)" opacity="0.5">
        <g id="Group_94" data-name="Group 94" transform="translate(0 1.456)">
          <ellipse id="Ellipse_115" data-name="Ellipse 115" cx="0.202" cy="0.202" rx="0.202" ry="0.202" fill="url(#linear-gradient-33)"/>
        </g>
        <g id="Group_95" data-name="Group 95" transform="translate(0.339)">
          <ellipse id="Ellipse_116" data-name="Ellipse 116" cx="0.314" cy="0.314" rx="0.314" ry="0.314" transform="translate(0.889)" fill="url(#linear-gradient-34)"/>
          <ellipse id="Ellipse_117" data-name="Ellipse 117" cx="0.248" cy="0.248" rx="0.248" ry="0.248" transform="translate(0 0.363)" fill="url(#linear-gradient-35)"/>
          <ellipse id="Ellipse_118" data-name="Ellipse 118" cx="0.149" cy="0.149" rx="0.149" ry="0.149" transform="translate(0.836 1.279)" fill="url(#linear-gradient-36)"/>
        </g>
      </g>
    </g>
    <path id="Path_1920" data-name="Path 1920" d="M376.873,241.852l-3.236-3.236-1.771,1.771A5.971,5.971,0,0,0,376.873,241.852Z" transform="translate(-353.354 -228.58)" fill="url(#linear-gradient-37)"/>
    <path id="Path_1921" data-name="Path 1921" d="M268.576,179.3a20.562,20.562,0,0,1,9.187,9.187c.41.909,1.8.8,2.812-.213a2.3,2.3,0,0,0,.76-2.212A19.814,19.814,0,0,0,271,175.732a2.3,2.3,0,0,0-2.212.759c-1.015,1.015-1.122,2.4-.213,2.812Z" transform="translate(-257.447 -170.471)" fill="url(#linear-gradient-5)"/>
    <path id="Path_1922" data-name="Path 1922" d="M305.259,237.463a1.723,1.723,0,0,0-.242-.223c-2.278-1.722-6.356-2.086-6.356-2.086a.478.478,0,0,0-.125,0,20.891,20.891,0,0,1,3.6,2.907,18.858,18.858,0,0,1,3.849,5.338c.41.909,1.8.8,2.813-.214a2.854,2.854,0,0,0,.793-1.391Z" transform="translate(-285.671 -225.382)" fill="url(#linear-gradient-39)"/>
    <g id="Group_101" data-name="Group 101" transform="translate(9.33 9.769)">
      <path id="Path_1923" data-name="Path 1923" d="M256.3,235.152s4.078.365,6.356,2.086-1.808,6.827-3.332,6.943-5.331-2.2-6.468-4.061S255.41,235.034,256.3,235.152Z" transform="translate(-252.643 -235.149)" fill="url(#linear-gradient-40)"/>
      <path id="Path_1924" data-name="Path 1924" d="M267.431,235.152a15.52,15.52,0,0,1,6.06,1.877c-.919,1.61-2.438,3.062-3.242,3.123-1.231.093-3.949-1.4-5.549-2.957C265.614,236.027,266.942,235.087,267.431,235.152Z" transform="translate(-263.771 -235.149)" fill="url(#linear-gradient-41)"/>
      <g id="Group_100" data-name="Group 100" transform="translate(2.04 0.567)" opacity="0.5">
        <g id="Group_98" data-name="Group 98" transform="translate(0 0.009)">
          <ellipse id="Ellipse_119" data-name="Ellipse 119" cx="0.425" cy="0.425" rx="0.425" ry="0.425" transform="translate(0.473)" fill="url(#linear-gradient-42)"/>
          <ellipse id="Ellipse_120" data-name="Ellipse 120" cx="0.335" cy="0.335" rx="0.335" ry="0.335" transform="translate(0 1.32)" fill="url(#linear-gradient-43)"/>
          <ellipse id="Ellipse_121" data-name="Ellipse 121" cx="0.202" cy="0.202" rx="0.202" ry="0.202" transform="translate(1.623 1.447)" fill="url(#linear-gradient-44)"/>
        </g>
        <g id="Group_99" data-name="Group 99" transform="translate(1.962)">
          <ellipse id="Ellipse_122" data-name="Ellipse 122" cx="0.314" cy="0.314" rx="0.314" ry="0.314" transform="translate(0.889)" fill="url(#linear-gradient-45)"/>
          <ellipse id="Ellipse_123" data-name="Ellipse 123" cx="0.248" cy="0.248" rx="0.248" ry="0.248" transform="translate(0 0.363)" fill="url(#linear-gradient-46)"/>
          <ellipse id="Ellipse_124" data-name="Ellipse 124" cx="0.149" cy="0.149" rx="0.149" ry="0.149" transform="translate(0.836 1.279)" fill="url(#linear-gradient-47)"/>
        </g>
      </g>
      <path id="Path_1925" data-name="Path 1925" d="M284.743,247.053a6.384,6.384,0,0,1,2.375-.874,8.994,8.994,0,0,1,2.464,1.24c2.278,1.722-1.808,6.827-3.332,6.943-.973.074-2.877-.845-4.422-2A5.836,5.836,0,0,1,284.743,247.053Z" transform="translate(-279.566 -245.33)" fill="url(#linear-gradient-48)"/>
      <path id="Path_1926" data-name="Path 1926" d="M296.135,257.792a7.292,7.292,0,0,1,3.591-5.775,7.974,7.974,0,0,1,1.605-.753,7.627,7.627,0,0,1,1.469.848c2.278,1.722-1.808,6.827-3.332,6.943A6.971,6.971,0,0,1,296.135,257.792Z" transform="translate(-292.785 -250.023)" fill="url(#linear-gradient-49)"/>
    </g>
    <path id="Path_1927" data-name="Path 1927" d="M258.446,295.594q-.123-.127-.265-.253a1.355,1.355,0,0,0-.332-.219,13.548,13.548,0,0,0-4.744-1.274,1.437,1.437,0,0,0,.18.451c1.137,1.858,4.944,4.176,6.468,4.061a2.12,2.12,0,0,0,.985-.473Z" transform="translate(-243.74 -279.558)" fill="url(#linear-gradient-50)"/>
    <g id="Group_102" data-name="Group 102" transform="translate(6.236 14.287)">
      <path id="Path_1928" data-name="Path 1928" d="M220.677,295.309a1.357,1.357,0,0,0-.332-.219c-.951-.442-5.561-2.424-7.484-.341-1.2,1.3.592,3.488,2.413,5.174,1.663,1.54,3.974,1.81,5.143.606C221.742,299.164,222.793,297.193,220.677,295.309Z" transform="translate(-212.472 -293.814)" fill="url(#linear-gradient-51)"/>
      <path id="Path_1929" data-name="Path 1929" d="M220.677,295.309a1.357,1.357,0,0,0-.332-.219c-.951-.442-5.561-2.424-7.484-.341-1.2,1.3.592,3.488,2.413,5.174C216.936,301.462,222.793,297.193,220.677,295.309Z" transform="translate(-212.472 -293.814)" fill="url(#linear-gradient-52)"/>
    </g>
    <path id="Path_1930" data-name="Path 1930" d="M247.09,347.305c1.542,1.428,3.641,1.763,4.871.844l-3-3-2.018,2.018Z" transform="translate(-238.052 -326.909)" fill="url(#linear-gradient-53)"/>
    <path id="Path_1931" data-name="Path 1931" d="M162.265,301.519a16.232,16.232,0,0,1,8.134,8.134c.335.833,1.648.653,2.664-.362a2.4,2.4,0,0,0,.843-2.128,15.683,15.683,0,0,0-9.15-9.15,2.4,2.4,0,0,0-2.128.843C161.612,299.871,161.432,301.184,162.265,301.519Z" transform="translate(-159.41 -283.359)" fill="url(#linear-gradient-54)"/>
    <path id="Path_1932" data-name="Path 1932" d="M222.5,364.814a1.141,1.141,0,0,0-1.614,0l-.638.638q.422.371.833.781a14.977,14.977,0,0,1,3.322,4.812c.335.833,1.648.653,2.664-.362a3.523,3.523,0,0,0,.565-.735Z" transform="translate(-213.409 -344.75)" fill="url(#linear-gradient-55)"/>
    <path id="Path_1933" data-name="Path 1933" d="M131.834,373.566a1.141,1.141,0,0,1,0-1.614l7.138-7.138a1.141,1.141,0,0,1,1.614,1.614l-7.138,7.138A1.141,1.141,0,0,1,131.834,373.566Z" transform="translate(-131.5 -344.75)" fill="url(#linear-gradient-56)"/>
  </g>
</svg>
