<svg id="dollar" xmlns="http://www.w3.org/2000/svg" width="31.205" height="31.205" viewBox="0 0 31.205 31.205">
  <path id="Path_94" data-name="Path 94" d="M15.664,0A15.657,15.657,0,0,0,0,15.542,15.761,15.761,0,0,0,15.664,31.205,15.6,15.6,0,0,0,15.664,0Z" fill="#fedb41"/>
  <path id="Path_95" data-name="Path 95" d="M272.542,15.542A15.657,15.657,0,0,1,257,31.205V0A15.552,15.552,0,0,1,272.542,15.542Z" transform="translate(-241.336)" fill="#fc3"/>
  <path id="Path_96" data-name="Path 96" d="M72.007,60A11.946,11.946,0,1,0,83.892,71.885,12.013,12.013,0,0,0,72.007,60Z" transform="translate(-56.343 -56.343)" fill="#fea832"/>
  <path id="Path_97" data-name="Path 97" d="M268.885,71.885A12.013,12.013,0,0,1,257,83.892V60A11.908,11.908,0,0,1,268.885,71.885Z" transform="translate(-241.336 -56.343)" fill="#fe9923"/>
  <path id="Path_98" data-name="Path 98" d="M186.521,127.314h-.914v-3.657h.914a.905.905,0,0,1,.914.914.914.914,0,0,0,1.828,0,2.739,2.739,0,0,0-2.743-2.743h-.914v-.914a.914.914,0,0,0-1.828,0v.914h-1.036A2.739,2.739,0,0,0,180,124.571V126.4a2.739,2.739,0,0,0,2.743,2.743h1.036v3.779h-1.036a.905.905,0,0,1-.914-.914.914.914,0,0,0-1.828,0,2.739,2.739,0,0,0,2.743,2.743h1.036v.914a.914.914,0,0,0,1.828,0v-.914h.914a2.739,2.739,0,0,0,2.743-2.743v-1.95A2.739,2.739,0,0,0,186.521,127.314Zm-2.743,0h-1.036a.905.905,0,0,1-.914-.914v-1.828a.905.905,0,0,1,.914-.914h1.036Zm3.657,4.693a.905.905,0,0,1-.914.914h-.914v-3.779h.914a.905.905,0,0,1,.914.914Z" transform="translate(-169.029 -112.686)" fill="#fedb41"/>
  <path id="Path_99" data-name="Path 99" d="M258.828,127.314h-.914v-3.657h.914a.905.905,0,0,1,.914.914.914.914,0,0,0,1.828,0,2.739,2.739,0,0,0-2.743-2.743h-.914v-.914A.882.882,0,0,0,257,120v16.578a.882.882,0,0,0,.914-.914v-.914h.914a2.739,2.739,0,0,0,2.743-2.743v-1.95A2.739,2.739,0,0,0,258.828,127.314Zm.914,4.693a.905.905,0,0,1-.914.914h-.914v-3.779h.914a.905.905,0,0,1,.914.914Z" transform="translate(-241.336 -112.686)" fill="#fc3"/>
</svg>
