<svg xmlns="http://www.w3.org/2000/svg" width="15.313" height="17.5" viewBox="0 0 15.313 17.5">
  <g id="flag" transform="translate(-32 0)">
    <path id="Path_2858" data-name="Path 2858" d="M67.224,31.133,62.589,27.16a1.541,1.541,0,0,1-.538-1.17V23.418A3.418,3.418,0,0,1,65.469,20H63.418A3.418,3.418,0,0,0,60,23.418v2.6a3.418,3.418,0,0,0,1.194,2.6l3.98,3.411a2.324,2.324,0,0,0,3.041-.013l.368-.321a2.318,2.318,0,0,1-1.358-.554Z" transform="translate(-27.043 -19.316)" fill="#cee1f2"/>
    <path id="Path_2859" data-name="Path 2859" d="M39.643,13.949a3.009,3.009,0,0,1-1.957-.724l-3.98-3.411A4.1,4.1,0,0,1,32.273,6.7V4.1a4.106,4.106,0,0,1,4.1-4.1h6.836a4.106,4.106,0,0,1,4.1,4.1V6.376a4.1,4.1,0,0,1-1.4,3.09L41.62,13.207a3.009,3.009,0,0,1-1.964.741h-.013ZM36.375,1.367A2.737,2.737,0,0,0,33.641,4.1V6.7A2.731,2.731,0,0,0,34.6,8.775l3.98,3.411a1.65,1.65,0,0,0,2.146-.009l4.287-3.741a2.734,2.734,0,0,0,.937-2.06V4.1a2.737,2.737,0,0,0-2.734-2.734ZM40.34,16.816v-.923a.684.684,0,0,0-1.367,0v.923a.684.684,0,1,0,1.367,0ZM42.8,15.723v-.957a.684.684,0,0,0-1.367,0v.957a.684.684,0,1,0,1.367,0Zm2.222-1.948v-.957a.684.684,0,0,0-1.367,0v.957a.684.684,0,0,0,1.367,0Zm2.29-2.051v-.957a.684.684,0,0,0-1.367,0v.957a.684.684,0,0,0,1.367,0Zm-9.434,4v-.957a.684.684,0,0,0-1.367,0v.957a.684.684,0,1,0,1.367,0Zm-2.222-1.948v-.957a.684.684,0,0,0-1.367,0v.957a.684.684,0,0,0,1.367,0Zm-2.29-2.051v-.957a.684.684,0,0,0-1.367,0v.957a.684.684,0,0,0,1.367,0Z" fill="#f587cb"/>
    <path id="Path_2860" data-name="Path 2860" d="M165.911,90.136a.817.817,0,0,1-.38-.094l-.4-.212-.4.212a.817.817,0,0,1-1.183-.859l.077-.446-.326-.316a.816.816,0,0,1,.452-1.39l.451-.065.2-.407a.818.818,0,0,1,1.463,0l.2.407.451.065a.816.816,0,0,1,.452,1.39l-.326.316.077.447a.817.817,0,0,1-.8.953Zm-.784-1.212a.817.817,0,0,1,.379.093l.3.156-.056-.328a.813.813,0,0,1,.235-.722l.237-.231-.33-.048a.816.816,0,0,1-.614-.445l-.149-.3-.149.3a.816.816,0,0,1-.614.445l-.33.048.237.231a.814.814,0,0,1,.235.722l-.056.328.3-.156A.817.817,0,0,1,165.127,88.924Z" transform="translate(-125.471 -82.515)" fill="#f587cb"/>
  </g>
</svg>
