<svg xmlns="http://www.w3.org/2000/svg" width="23.156" height="26.464" viewBox="0 0 23.156 26.464">
  <g id="flag" transform="translate(-32 0)">
    <path id="Path_2858" data-name="Path 2858" d="M70.924,36.836l-7.009-6.008a2.33,2.33,0,0,1-.814-1.769v-3.89A5.169,5.169,0,0,1,68.27,20h-3.1A5.169,5.169,0,0,0,60,25.169V29.1a5.169,5.169,0,0,0,1.8,3.924l6.018,5.158a3.515,3.515,0,0,0,4.6-.02l.557-.486a3.5,3.5,0,0,1-2.054-.838Z" transform="translate(-26.553 -18.966)" fill="#cee1f2"/>
    <path id="Path_2859" data-name="Path 2859" d="M43.557,21.093A4.55,4.55,0,0,1,40.6,20L34.579,14.84a6.2,6.2,0,0,1-2.166-4.709V6.2a6.21,6.21,0,0,1,6.2-6.2H48.953a6.21,6.21,0,0,1,6.2,6.2V9.642a6.2,6.2,0,0,1-2.125,4.673l-6.483,5.657a4.55,4.55,0,0,1-2.97,1.121h-.02ZM38.616,2.068A4.14,4.14,0,0,0,34.481,6.2v3.928a4.13,4.13,0,0,0,1.444,3.139l6.018,5.158a2.5,2.5,0,0,0,3.246-.014l6.483-5.657a4.134,4.134,0,0,0,1.416-3.116V6.2a4.14,4.14,0,0,0-4.135-4.135Zm6,23.363v-1.4a1.034,1.034,0,0,0-2.067,0v1.4a1.034,1.034,0,1,0,2.067,0Zm3.721-1.654V22.329a1.034,1.034,0,0,0-2.067,0v1.447a1.034,1.034,0,1,0,2.067,0Zm3.36-2.946V19.383a1.034,1.034,0,0,0-2.067,0V20.83a1.034,1.034,0,1,0,2.067,0Zm3.463-3.1V16.282a1.034,1.034,0,0,0-2.067,0v1.447a1.034,1.034,0,1,0,2.067,0ZM40.89,23.776V22.329a1.034,1.034,0,0,0-2.067,0v1.447a1.034,1.034,0,1,0,2.067,0Zm-3.36-2.946V19.383a1.034,1.034,0,0,0-2.067,0V20.83a1.034,1.034,0,0,0,2.067,0Zm-3.463-3.1V16.282a1.034,1.034,0,0,0-2.067,0v1.447a1.034,1.034,0,0,0,2.067,0Z" fill="#f587cb"/>
  </g>
</svg>
